<mxfile host="app.diagrams.net" modified="2020-07-30T06:44:24.844Z" agent="5.0 (Macintosh; Intel Mac OS X 10_14_5) AppleWebKit/537.36 (KHTML, like Gecko) Chrome/83.0.4103.61 Safari/537.36" etag="rgG5phXhLgLIRgipJZyW" version="13.5.5" type="github">
  <diagram id="HGR84DPYoryr4UejDbrn" name="Page-1">
    <mxGraphModel dx="2066" dy="1154" grid="1" gridSize="10" guides="1" tooltips="1" connect="1" arrows="1" fold="1" page="1" pageScale="1" pageWidth="850" pageHeight="1100" math="0" shadow="0">
      <root>
        <mxCell id="0" />
        <mxCell id="1" parent="0" />
        <mxCell id="f-NZzgFDiCujEd77ImA0-1" style="edgeStyle=orthogonalEdgeStyle;rounded=0;comic=0;jumpStyle=arc;jumpSize=6;html=1;labelBackgroundColor=#ffffff;startArrow=none;startFill=0;endArrow=classicThin;endFill=1;endSize=6;jettySize=auto;orthogonalLoop=1;strokeColor=#6881B3;strokeWidth=1;fillColor=none;fontFamily=Helvetica;fontSize=12;fontColor=#9673A6;" parent="1" source="f-NZzgFDiCujEd77ImA0-3" target="f-NZzgFDiCujEd77ImA0-7" edge="1">
          <mxGeometry relative="1" as="geometry" />
        </mxCell>
        <mxCell id="f-NZzgFDiCujEd77ImA0-2" style="edgeStyle=orthogonalEdgeStyle;rounded=0;comic=0;jumpStyle=arc;jumpSize=6;html=1;entryX=0.5;entryY=0;labelBackgroundColor=#ffffff;startArrow=none;startFill=0;endArrow=classicThin;endFill=1;endSize=6;jettySize=auto;orthogonalLoop=1;strokeColor=#6881B3;strokeWidth=1;fillColor=none;fontFamily=Helvetica;fontSize=12;fontColor=#9673A6;" parent="1" source="f-NZzgFDiCujEd77ImA0-3" target="f-NZzgFDiCujEd77ImA0-5" edge="1">
          <mxGeometry relative="1" as="geometry" />
        </mxCell>
        <mxCell id="f-NZzgFDiCujEd77ImA0-3" value="a&lt;span&gt;pplication&lt;/span&gt;" style="rounded=0;whiteSpace=wrap;html=1;shadow=0;glass=0;comic=0;labelBackgroundColor=none;strokeColor=#9673A6;strokeWidth=1;fillColor=none;fontFamily=Helvetica;fontSize=12;fontColor=#9673A6;align=center;" parent="1" vertex="1">
          <mxGeometry x="200" y="240" width="80" height="40" as="geometry" />
        </mxCell>
        <mxCell id="f-NZzgFDiCujEd77ImA0-4" style="edgeStyle=orthogonalEdgeStyle;rounded=0;comic=0;jumpStyle=arc;jumpSize=6;html=1;labelBackgroundColor=#ffffff;startArrow=none;startFill=0;endArrow=classicThin;endFill=1;endSize=6;jettySize=auto;orthogonalLoop=1;strokeColor=#6881B3;strokeWidth=1;fillColor=none;fontFamily=Helvetica;fontSize=12;fontColor=#9673A6;" parent="1" source="f-NZzgFDiCujEd77ImA0-5" target="f-NZzgFDiCujEd77ImA0-10" edge="1">
          <mxGeometry relative="1" as="geometry" />
        </mxCell>
        <mxCell id="f-NZzgFDiCujEd77ImA0-5" value="domain" style="rounded=0;whiteSpace=wrap;html=1;shadow=0;glass=0;comic=0;labelBackgroundColor=none;strokeColor=#9673A6;strokeWidth=1;fillColor=none;fontFamily=Helvetica;fontSize=12;fontColor=#9673A6;align=center;" parent="1" vertex="1">
          <mxGeometry x="200" y="360" width="80" height="40" as="geometry" />
        </mxCell>
        <mxCell id="f-NZzgFDiCujEd77ImA0-6" style="edgeStyle=orthogonalEdgeStyle;rounded=0;comic=0;jumpStyle=arc;jumpSize=6;html=1;labelBackgroundColor=#ffffff;startArrow=none;startFill=0;endArrow=classicThin;endFill=1;endSize=6;jettySize=auto;orthogonalLoop=1;strokeColor=#6881B3;strokeWidth=1;fillColor=none;fontFamily=Helvetica;fontSize=12;fontColor=#9673A6;entryX=1;entryY=0.5;exitX=0.5;exitY=1;" parent="1" source="f-NZzgFDiCujEd77ImA0-7" target="f-NZzgFDiCujEd77ImA0-5" edge="1">
          <mxGeometry relative="1" as="geometry">
            <mxPoint x="240" y="380" as="targetPoint" />
            <Array as="points">
              <mxPoint x="360" y="380" />
            </Array>
          </mxGeometry>
        </mxCell>
        <mxCell id="f-NZzgFDiCujEd77ImA0-7" value="persistence" style="rounded=0;whiteSpace=wrap;html=1;shadow=0;glass=0;comic=0;labelBackgroundColor=none;strokeColor=#9673A6;strokeWidth=1;fillColor=none;fontFamily=Helvetica;fontSize=12;fontColor=#9673A6;align=center;" parent="1" vertex="1">
          <mxGeometry x="320" y="300" width="80" height="40" as="geometry" />
        </mxCell>
        <mxCell id="f-NZzgFDiCujEd77ImA0-8" style="edgeStyle=orthogonalEdgeStyle;rounded=0;comic=0;jumpStyle=arc;jumpSize=6;html=1;labelBackgroundColor=#ffffff;startArrow=none;startFill=0;endArrow=classicThin;endFill=1;endSize=6;jettySize=auto;orthogonalLoop=1;strokeColor=#6881B3;strokeWidth=1;fillColor=none;fontFamily=Helvetica;fontSize=12;fontColor=#9673A6;" parent="1" source="f-NZzgFDiCujEd77ImA0-9" target="f-NZzgFDiCujEd77ImA0-12" edge="1">
          <mxGeometry relative="1" as="geometry" />
        </mxCell>
        <mxCell id="f-NZzgFDiCujEd77ImA0-9" value="start" style="rounded=0;whiteSpace=wrap;html=1;shadow=0;glass=0;comic=0;labelBackgroundColor=none;strokeColor=#9673A6;strokeWidth=1;fillColor=none;fontFamily=Helvetica;fontSize=12;fontColor=#9673A6;align=center;" parent="1" vertex="1">
          <mxGeometry x="200" y="80" width="80" height="40" as="geometry" />
        </mxCell>
        <mxCell id="f-NZzgFDiCujEd77ImA0-10" value="types" style="rounded=0;whiteSpace=wrap;html=1;shadow=0;glass=0;comic=0;labelBackgroundColor=none;strokeColor=#9673A6;strokeWidth=1;fillColor=none;fontFamily=Helvetica;fontSize=12;fontColor=#9673A6;align=center;" parent="1" vertex="1">
          <mxGeometry x="80" y="360" width="80" height="40" as="geometry" />
        </mxCell>
        <mxCell id="f-NZzgFDiCujEd77ImA0-11" style="edgeStyle=orthogonalEdgeStyle;rounded=0;comic=0;jumpStyle=arc;jumpSize=6;html=1;entryX=0.5;entryY=0;labelBackgroundColor=#ffffff;startArrow=none;startFill=0;endArrow=classicThin;endFill=1;endSize=6;jettySize=auto;orthogonalLoop=1;strokeColor=#6881B3;strokeWidth=1;fillColor=none;fontFamily=Helvetica;fontSize=12;fontColor=#9673A6;" parent="1" source="f-NZzgFDiCujEd77ImA0-12" target="f-NZzgFDiCujEd77ImA0-3" edge="1">
          <mxGeometry relative="1" as="geometry" />
        </mxCell>
        <mxCell id="f-NZzgFDiCujEd77ImA0-12" value="web" style="rounded=0;whiteSpace=wrap;html=1;shadow=0;glass=0;comic=0;labelBackgroundColor=none;strokeColor=#9673A6;strokeWidth=1;fillColor=none;fontFamily=Helvetica;fontSize=12;fontColor=#9673A6;align=center;" parent="1" vertex="1">
          <mxGeometry x="200" y="160" width="80" height="40" as="geometry" />
        </mxCell>
        <mxCell id="f-NZzgFDiCujEd77ImA0-13" style="edgeStyle=orthogonalEdgeStyle;rounded=0;comic=0;jumpStyle=arc;jumpSize=6;html=1;entryX=0.5;entryY=0;labelBackgroundColor=#ffffff;startArrow=none;startFill=0;endArrow=classicThin;endFill=1;endSize=6;jettySize=auto;orthogonalLoop=1;strokeColor=#6881B3;strokeWidth=1;fillColor=none;fontFamily=Helvetica;fontSize=12;fontColor=#9673A6;" parent="1" source="f-NZzgFDiCujEd77ImA0-15" target="f-NZzgFDiCujEd77ImA0-17" edge="1">
          <mxGeometry relative="1" as="geometry" />
        </mxCell>
        <mxCell id="f-NZzgFDiCujEd77ImA0-14" style="edgeStyle=orthogonalEdgeStyle;rounded=0;comic=0;jumpStyle=arc;jumpSize=6;html=1;entryX=0.5;entryY=0;labelBackgroundColor=#ffffff;startArrow=none;startFill=0;endArrow=classicThin;endFill=1;endSize=6;jettySize=auto;orthogonalLoop=1;strokeColor=#6881B3;strokeWidth=1;fillColor=none;fontFamily=Helvetica;fontSize=12;fontColor=#9673A6;entryDx=0;entryDy=0;" parent="1" source="f-NZzgFDiCujEd77ImA0-15" target="f-NZzgFDiCujEd77ImA0-24" edge="1">
          <mxGeometry relative="1" as="geometry">
            <Array as="points">
              <mxPoint x="720" y="140" />
              <mxPoint x="880" y="140" />
            </Array>
          </mxGeometry>
        </mxCell>
        <mxCell id="f-NZzgFDiCujEd77ImA0-15" value="Starter" style="rounded=0;whiteSpace=wrap;html=1;shadow=0;glass=0;comic=0;labelBackgroundColor=none;strokeColor=#82b366;strokeWidth=1;fillColor=#d5e8d4;fontFamily=Helvetica;fontSize=12;fontColor=#9673A6;align=center;gradientColor=none;" parent="1" vertex="1">
          <mxGeometry x="680" y="80" width="80" height="40" as="geometry" />
        </mxCell>
        <mxCell id="f-NZzgFDiCujEd77ImA0-16" style="edgeStyle=orthogonalEdgeStyle;rounded=0;comic=0;jumpStyle=arc;jumpSize=6;html=1;entryX=0.5;entryY=0;labelBackgroundColor=#ffffff;startArrow=none;startFill=0;endArrow=classicThin;endFill=1;endSize=6;jettySize=auto;orthogonalLoop=1;strokeColor=#6881B3;strokeWidth=1;fillColor=none;fontFamily=Helvetica;fontSize=12;fontColor=#9673A6;" parent="1" source="f-NZzgFDiCujEd77ImA0-17" target="f-NZzgFDiCujEd77ImA0-33" edge="1">
          <mxGeometry relative="1" as="geometry" />
        </mxCell>
        <mxCell id="f-NZzgFDiCujEd77ImA0-17" value="Web" style="rounded=0;whiteSpace=wrap;html=1;shadow=0;glass=0;comic=0;labelBackgroundColor=none;strokeColor=#b85450;strokeWidth=1;fillColor=#f8cecc;fontFamily=Helvetica;fontSize=12;fontColor=#9673A6;align=center;" parent="1" vertex="1">
          <mxGeometry x="680" y="160" width="80" height="40" as="geometry" />
        </mxCell>
        <mxCell id="f-NZzgFDiCujEd77ImA0-18" style="edgeStyle=orthogonalEdgeStyle;rounded=0;comic=0;jumpStyle=arc;jumpSize=6;html=1;labelBackgroundColor=#ffffff;startArrow=none;startFill=0;endArrow=classicThin;endFill=1;endSize=6;jettySize=auto;orthogonalLoop=1;strokeColor=#6881B3;strokeWidth=1;fillColor=none;fontFamily=Helvetica;fontSize=12;fontColor=#9673A6;exitX=0.5;exitY=1;exitDx=0;exitDy=0;" parent="1" source="f-NZzgFDiCujEd77ImA0-24" edge="1">
          <mxGeometry relative="1" as="geometry">
            <mxPoint x="720" y="240" as="targetPoint" />
            <Array as="points">
              <mxPoint x="880" y="220" />
              <mxPoint x="720" y="220" />
            </Array>
            <mxPoint x="890" y="220" as="sourcePoint" />
          </mxGeometry>
        </mxCell>
        <mxCell id="f-NZzgFDiCujEd77ImA0-19" style="edgeStyle=orthogonalEdgeStyle;rounded=0;comic=0;jumpStyle=arc;jumpSize=6;html=1;labelBackgroundColor=#ffffff;startArrow=none;startFill=0;endArrow=classicThin;endFill=1;endSize=6;jettySize=auto;orthogonalLoop=1;strokeColor=#6881B3;strokeWidth=1;fillColor=none;fontFamily=Helvetica;fontSize=12;fontColor=#9673A6;" parent="1" source="f-NZzgFDiCujEd77ImA0-24" target="f-NZzgFDiCujEd77ImA0-25" edge="1">
          <mxGeometry relative="1" as="geometry" />
        </mxCell>
        <mxCell id="f-NZzgFDiCujEd77ImA0-20" style="edgeStyle=orthogonalEdgeStyle;rounded=0;comic=0;jumpStyle=arc;jumpSize=6;html=1;entryX=0;entryY=0.5;labelBackgroundColor=#ffffff;startArrow=none;startFill=0;endArrow=classicThin;endFill=1;endSize=6;jettySize=auto;orthogonalLoop=1;strokeColor=#6881B3;strokeWidth=1;fillColor=none;fontFamily=Helvetica;fontSize=12;fontColor=#9673A6;" parent="1" source="f-NZzgFDiCujEd77ImA0-24" target="f-NZzgFDiCujEd77ImA0-26" edge="1">
          <mxGeometry relative="1" as="geometry" />
        </mxCell>
        <mxCell id="f-NZzgFDiCujEd77ImA0-21" style="edgeStyle=orthogonalEdgeStyle;rounded=0;comic=0;jumpStyle=arc;jumpSize=6;html=1;entryX=0;entryY=0.5;labelBackgroundColor=#ffffff;startArrow=none;startFill=0;endArrow=classicThin;endFill=1;endSize=6;jettySize=auto;orthogonalLoop=1;strokeColor=#6881B3;strokeWidth=1;fillColor=none;fontFamily=Helvetica;fontSize=12;fontColor=#9673A6;" parent="1" source="f-NZzgFDiCujEd77ImA0-24" target="f-NZzgFDiCujEd77ImA0-27" edge="1">
          <mxGeometry relative="1" as="geometry" />
        </mxCell>
        <mxCell id="f-NZzgFDiCujEd77ImA0-22" style="edgeStyle=orthogonalEdgeStyle;rounded=0;comic=0;jumpStyle=arc;jumpSize=6;html=1;entryX=0;entryY=0.5;labelBackgroundColor=#ffffff;startArrow=none;startFill=0;endArrow=classicThin;endFill=1;endSize=6;jettySize=auto;orthogonalLoop=1;strokeColor=#6881B3;strokeWidth=1;fillColor=none;fontFamily=Helvetica;fontSize=12;fontColor=#9673A6;" parent="1" source="f-NZzgFDiCujEd77ImA0-24" target="f-NZzgFDiCujEd77ImA0-28" edge="1">
          <mxGeometry relative="1" as="geometry" />
        </mxCell>
        <mxCell id="f-NZzgFDiCujEd77ImA0-23" style="edgeStyle=orthogonalEdgeStyle;rounded=0;comic=0;jumpStyle=arc;jumpSize=6;html=1;entryX=0;entryY=0.5;labelBackgroundColor=#ffffff;startArrow=none;startFill=0;endArrow=classicThin;endFill=1;endSize=6;jettySize=auto;orthogonalLoop=1;strokeColor=#6881B3;strokeWidth=1;fillColor=none;fontFamily=Helvetica;fontSize=12;fontColor=#9673A6;" parent="1" source="f-NZzgFDiCujEd77ImA0-24" target="f-NZzgFDiCujEd77ImA0-29" edge="1">
          <mxGeometry relative="1" as="geometry" />
        </mxCell>
        <mxCell id="f-NZzgFDiCujEd77ImA0-24" value="Infrastructure" style="rounded=0;whiteSpace=wrap;html=1;shadow=0;glass=0;comic=0;labelBackgroundColor=none;strokeColor=#996185;strokeWidth=1;fillColor=#FFE6CC;fontFamily=Helvetica;fontSize=12;fontColor=#9673A6;align=center;gradientColor=none;" parent="1" vertex="1">
          <mxGeometry x="840" y="160" width="80" height="40" as="geometry" />
        </mxCell>
        <mxCell id="f-NZzgFDiCujEd77ImA0-25" value="Local&lt;div&gt;File System&lt;/div&gt;" style="rounded=0;whiteSpace=wrap;html=1;shadow=0;glass=0;comic=0;labelBackgroundColor=none;strokeColor=#996185;strokeWidth=1;fillColor=#FFE6CC;fontFamily=Helvetica;fontSize=12;fontColor=#9673A6;align=center;gradientColor=none;" parent="1" vertex="1">
          <mxGeometry x="960" y="160" width="80" height="40" as="geometry" />
        </mxCell>
        <mxCell id="f-NZzgFDiCujEd77ImA0-26" value="Event Store" style="rounded=0;whiteSpace=wrap;html=1;shadow=0;glass=0;comic=0;labelBackgroundColor=none;strokeColor=#996185;strokeWidth=1;fillColor=#FFE6CC;fontFamily=Helvetica;fontSize=12;fontColor=#9673A6;align=center;gradientColor=none;" parent="1" vertex="1">
          <mxGeometry x="960" y="110" width="80" height="40" as="geometry" />
        </mxCell>
        <mxCell id="f-NZzgFDiCujEd77ImA0-27" value="Data Store" style="rounded=0;whiteSpace=wrap;html=1;shadow=0;glass=0;comic=0;labelBackgroundColor=none;strokeColor=#996185;strokeWidth=1;fillColor=#FFE6CC;fontFamily=Helvetica;fontSize=12;fontColor=#9673A6;align=center;gradientColor=none;" parent="1" vertex="1">
          <mxGeometry x="960" y="60" width="80" height="40" as="geometry" />
        </mxCell>
        <mxCell id="f-NZzgFDiCujEd77ImA0-28" value="Async&lt;div&gt;Messaging&lt;/div&gt;" style="rounded=0;whiteSpace=wrap;html=1;shadow=0;glass=0;comic=0;labelBackgroundColor=none;strokeColor=#996185;strokeWidth=1;fillColor=#FFE6CC;fontFamily=Helvetica;fontSize=12;fontColor=#9673A6;align=center;gradientColor=none;" parent="1" vertex="1">
          <mxGeometry x="960" y="210" width="80" height="40" as="geometry" />
        </mxCell>
        <mxCell id="f-NZzgFDiCujEd77ImA0-29" value="External&lt;div&gt;Services&lt;/div&gt;" style="rounded=0;whiteSpace=wrap;html=1;shadow=0;glass=0;comic=0;labelBackgroundColor=none;strokeColor=#996185;strokeWidth=1;fillColor=#FFE6CC;fontFamily=Helvetica;fontSize=12;fontColor=#9673A6;align=center;gradientColor=none;" parent="1" vertex="1">
          <mxGeometry x="960" y="260" width="80" height="40" as="geometry" />
        </mxCell>
        <mxCell id="f-NZzgFDiCujEd77ImA0-30" style="edgeStyle=orthogonalEdgeStyle;rounded=0;comic=0;jumpStyle=arc;jumpSize=6;html=1;entryX=0.5;entryY=0;labelBackgroundColor=#ffffff;startArrow=none;startFill=0;endArrow=classicThin;endFill=1;endSize=6;jettySize=auto;orthogonalLoop=1;strokeColor=#6881B3;strokeWidth=1;fillColor=none;fontFamily=Helvetica;fontSize=12;fontColor=#9673A6;" parent="1" source="f-NZzgFDiCujEd77ImA0-33" target="f-NZzgFDiCujEd77ImA0-37" edge="1">
          <mxGeometry relative="1" as="geometry" />
        </mxCell>
        <mxCell id="f-NZzgFDiCujEd77ImA0-31" style="edgeStyle=orthogonalEdgeStyle;rounded=0;comic=0;jumpStyle=arc;jumpSize=6;html=1;exitX=0.75;exitY=1;entryX=0;entryY=0.25;labelBackgroundColor=#ffffff;startArrow=none;startFill=0;endArrow=classicThin;endFill=1;endSize=6;jettySize=auto;orthogonalLoop=1;strokeColor=#6881B3;strokeWidth=1;fillColor=none;fontFamily=Helvetica;fontSize=12;fontColor=#9673A6;" parent="1" source="f-NZzgFDiCujEd77ImA0-33" target="f-NZzgFDiCujEd77ImA0-38" edge="1">
          <mxGeometry relative="1" as="geometry" />
        </mxCell>
        <mxCell id="f-NZzgFDiCujEd77ImA0-32" style="edgeStyle=orthogonalEdgeStyle;rounded=0;comic=0;jumpStyle=arc;jumpSize=6;html=1;entryX=1;entryY=0.5;labelBackgroundColor=#ffffff;startArrow=none;startFill=0;endArrow=classicThin;endFill=1;endSize=6;jettySize=auto;orthogonalLoop=1;strokeColor=#6881B3;strokeWidth=1;fillColor=none;fontFamily=Helvetica;fontSize=12;fontColor=#9673A6;" parent="1" source="f-NZzgFDiCujEd77ImA0-33" target="f-NZzgFDiCujEd77ImA0-42" edge="1">
          <mxGeometry relative="1" as="geometry" />
        </mxCell>
        <mxCell id="f-NZzgFDiCujEd77ImA0-33" value="Application" style="rounded=0;whiteSpace=wrap;html=1;shadow=0;glass=0;comic=0;labelBackgroundColor=none;strokeColor=#d6b656;strokeWidth=1;fillColor=#fff2cc;fontFamily=Helvetica;fontSize=12;fontColor=#9673A6;align=center;" parent="1" vertex="1">
          <mxGeometry x="680" y="240" width="80" height="40" as="geometry" />
        </mxCell>
        <mxCell id="f-NZzgFDiCujEd77ImA0-34" style="edgeStyle=orthogonalEdgeStyle;rounded=0;comic=0;jumpStyle=arc;jumpSize=6;html=1;entryX=0;entryY=0.75;labelBackgroundColor=#ffffff;startArrow=none;startFill=0;endArrow=classicThin;endFill=1;endSize=6;jettySize=auto;orthogonalLoop=1;strokeColor=#6881B3;strokeWidth=1;fillColor=none;fontFamily=Helvetica;fontSize=12;fontColor=#9673A6;" parent="1" source="f-NZzgFDiCujEd77ImA0-37" target="f-NZzgFDiCujEd77ImA0-38" edge="1">
          <mxGeometry relative="1" as="geometry">
            <Array as="points">
              <mxPoint x="740" y="330" />
            </Array>
          </mxGeometry>
        </mxCell>
        <mxCell id="f-NZzgFDiCujEd77ImA0-35" style="edgeStyle=orthogonalEdgeStyle;rounded=0;comic=0;jumpStyle=arc;jumpSize=6;html=1;entryX=0;entryY=0.5;labelBackgroundColor=#ffffff;startArrow=none;startFill=0;endArrow=classicThin;endFill=1;endSize=6;jettySize=auto;orthogonalLoop=1;strokeColor=#6c8ebf;strokeWidth=1;fillColor=#dae8fc;fontFamily=Helvetica;fontSize=12;fontColor=#9673A6;" parent="1" source="f-NZzgFDiCujEd77ImA0-37" target="f-NZzgFDiCujEd77ImA0-39" edge="1">
          <mxGeometry relative="1" as="geometry" />
        </mxCell>
        <mxCell id="f-NZzgFDiCujEd77ImA0-36" style="edgeStyle=orthogonalEdgeStyle;rounded=0;comic=0;jumpStyle=arc;jumpSize=6;html=1;entryX=1;entryY=0.5;labelBackgroundColor=#ffffff;startArrow=none;startFill=0;endArrow=classicThin;endFill=1;endSize=6;jettySize=auto;orthogonalLoop=1;strokeColor=#6c8ebf;strokeWidth=1;fillColor=#dae8fc;fontFamily=Helvetica;fontSize=12;fontColor=#9673A6;" parent="1" source="f-NZzgFDiCujEd77ImA0-37" target="f-NZzgFDiCujEd77ImA0-40" edge="1">
          <mxGeometry relative="1" as="geometry" />
        </mxCell>
        <mxCell id="f-NZzgFDiCujEd77ImA0-37" value="Domain" style="rounded=0;whiteSpace=wrap;html=1;shadow=0;glass=0;comic=0;labelBackgroundColor=none;strokeColor=#6c8ebf;strokeWidth=1;fillColor=#dae8fc;fontFamily=Helvetica;fontSize=12;fontColor=#9673A6;align=center;" parent="1" vertex="1">
          <mxGeometry x="680" y="360" width="80" height="40" as="geometry" />
        </mxCell>
        <mxCell id="f-NZzgFDiCujEd77ImA0-38" value="External&lt;div&gt;API&lt;/div&gt;" style="rounded=0;whiteSpace=wrap;html=1;shadow=0;glass=0;comic=0;labelBackgroundColor=none;strokeColor=#d6b656;strokeWidth=1;fillColor=#fff2cc;fontFamily=Helvetica;fontSize=12;fontColor=#9673A6;align=center;gradientColor=#DAE8FC;" parent="1" vertex="1">
          <mxGeometry x="840" y="300" width="80" height="40" as="geometry" />
        </mxCell>
        <mxCell id="f-NZzgFDiCujEd77ImA0-39" value="External&lt;div&gt;Types&lt;/div&gt;" style="rounded=0;whiteSpace=wrap;html=1;shadow=0;glass=0;comic=0;labelBackgroundColor=none;strokeColor=#6c8ebf;strokeWidth=1;fillColor=#dae8fc;fontFamily=Helvetica;fontSize=12;fontColor=#9673A6;align=center;" parent="1" vertex="1">
          <mxGeometry x="840" y="360" width="80" height="40" as="geometry" />
        </mxCell>
        <mxCell id="f-NZzgFDiCujEd77ImA0-40" value="Types" style="rounded=0;whiteSpace=wrap;html=1;shadow=0;glass=0;comic=0;labelBackgroundColor=none;strokeColor=#6c8ebf;strokeWidth=1;fillColor=#dae8fc;fontFamily=Helvetica;fontSize=12;fontColor=#9673A6;align=center;" parent="1" vertex="1">
          <mxGeometry x="520" y="360" width="80" height="40" as="geometry" />
        </mxCell>
        <mxCell id="f-NZzgFDiCujEd77ImA0-41" style="edgeStyle=orthogonalEdgeStyle;rounded=0;comic=0;jumpStyle=arc;jumpSize=6;html=1;entryX=0.5;entryY=0;labelBackgroundColor=#ffffff;startArrow=none;startFill=0;endArrow=classicThin;endFill=1;endSize=6;jettySize=auto;orthogonalLoop=1;strokeColor=#6881B3;strokeWidth=1;fillColor=none;fontFamily=Helvetica;fontSize=12;fontColor=#9673A6;" parent="1" source="f-NZzgFDiCujEd77ImA0-42" target="f-NZzgFDiCujEd77ImA0-40" edge="1">
          <mxGeometry relative="1" as="geometry" />
        </mxCell>
        <mxCell id="f-NZzgFDiCujEd77ImA0-42" value="API" style="rounded=0;whiteSpace=wrap;html=1;shadow=0;glass=0;comic=0;labelBackgroundColor=none;strokeColor=#d6b656;strokeWidth=1;fillColor=#fff2cc;fontFamily=Helvetica;fontSize=12;fontColor=#9673A6;align=center;" parent="1" vertex="1">
          <mxGeometry x="520" y="240" width="80" height="40" as="geometry" />
        </mxCell>
        <mxCell id="f-NZzgFDiCujEd77ImA0-43" value="Autoconfigure" style="rounded=0;whiteSpace=wrap;html=1;shadow=0;glass=0;comic=0;labelBackgroundColor=none;strokeColor=#666666;strokeWidth=1;fillColor=#f5f5f5;fontFamily=Helvetica;fontSize=12;fontColor=#9673A6;align=center;textOpacity=50;opacity=50;gradientColor=none;" parent="1" vertex="1">
          <mxGeometry x="520" y="180" width="80" height="40" as="geometry" />
        </mxCell>
        <mxCell id="f-NZzgFDiCujEd77ImA0-44" style="edgeStyle=orthogonalEdgeStyle;rounded=0;comic=0;jumpStyle=arc;jumpSize=6;html=1;exitX=0.5;exitY=1;entryX=0.5;entryY=0;labelBackgroundColor=#ffffff;startArrow=none;startFill=0;endArrow=classicThin;endFill=1;endSize=6;jettySize=auto;orthogonalLoop=1;strokeColor=#6881B3;strokeWidth=1;fillColor=none;fontFamily=Helvetica;fontSize=12;fontColor=#9673A6;opacity=50;" parent="1" source="f-NZzgFDiCujEd77ImA0-46" target="f-NZzgFDiCujEd77ImA0-43" edge="1">
          <mxGeometry relative="1" as="geometry" />
        </mxCell>
        <mxCell id="f-NZzgFDiCujEd77ImA0-45" style="edgeStyle=orthogonalEdgeStyle;rounded=0;comic=0;jumpStyle=arc;jumpSize=6;html=1;entryX=0;entryY=0.5;labelBackgroundColor=#ffffff;startArrow=none;startFill=0;endArrow=classicThin;endFill=1;endSize=6;jettySize=auto;orthogonalLoop=1;strokeColor=#6881B3;strokeWidth=1;fillColor=none;fontFamily=Helvetica;fontSize=12;fontColor=#9673A6;opacity=50;" parent="1" source="f-NZzgFDiCujEd77ImA0-46" target="f-NZzgFDiCujEd77ImA0-42" edge="1">
          <mxGeometry relative="1" as="geometry">
            <Array as="points">
              <mxPoint x="500" y="140" />
              <mxPoint x="500" y="260" />
            </Array>
          </mxGeometry>
        </mxCell>
        <mxCell id="f-NZzgFDiCujEd77ImA0-46" value="Starter" style="rounded=0;whiteSpace=wrap;html=1;shadow=0;glass=0;comic=0;labelBackgroundColor=none;strokeColor=#666666;strokeWidth=1;fillColor=#f5f5f5;fontFamily=Helvetica;fontSize=12;fontColor=#9673A6;align=center;textOpacity=50;opacity=50;gradientColor=none;" parent="1" vertex="1">
          <mxGeometry x="520" y="120" width="80" height="40" as="geometry" />
        </mxCell>
        <mxCell id="f-NZzgFDiCujEd77ImA0-47" value="Domain Primitives&lt;div&gt;无状态逻辑，对外暴露&lt;/div&gt;&lt;div&gt;纯POJO，无依赖&lt;/div&gt;" style="text;html=1;resizable=0;points=[];autosize=1;align=left;verticalAlign=top;spacingTop=-4;fontSize=12;fontFamily=Helvetica;fontColor=#9673A6;" parent="1" vertex="1">
          <mxGeometry x="500" y="405" width="140" height="40" as="geometry" />
        </mxCell>
        <mxCell id="f-NZzgFDiCujEd77ImA0-48" value="核心业务逻辑的集中地；&lt;div&gt;包含有状态Entity、&lt;/div&gt;&lt;div&gt;领域服务DomainService、&lt;/div&gt;&lt;div&gt;以及外部依赖接口（Repository、ACL、中间件等）&lt;/div&gt;&lt;div&gt;纯POJO&lt;/div&gt;" style="text;html=1;resizable=0;points=[];autosize=1;align=left;verticalAlign=top;spacingTop=-4;fontSize=12;fontFamily=Helvetica;fontColor=#9673A6;" parent="1" vertex="1">
          <mxGeometry x="670" y="405" width="290" height="70" as="geometry" />
        </mxCell>
      </root>
    </mxGraphModel>
  </diagram>
</mxfile>
